<svg xmlns="http://www.w3.org/2000/svg" width="16" height="16" viewBox="0 0 16 16">
  <path id="Union_645" data-name="Union 645" d="M7.8,15.9.1,8.16a.355.355,0,0,1,0-.5,1.621,1.621,0,0,1,2.295,0l5.356,5.386a.354.354,0,0,0,.5,0l3.015-3.03a1.621,1.621,0,0,1,2.295,0,.374.374,0,0,1,.046.54L8.29,15.9a.345.345,0,0,1-.245.1A.353.353,0,0,1,7.8,15.9Zm-.406-4.979a.962.962,0,0,1,0-1.4L8.6,8.3a.354.354,0,0,0-.042-.453L7.254,6.53a1.054,1.054,0,0,1,0-1.4L7.3,5.082a.948.948,0,0,1,1.4,0L11.4,7.8a.352.352,0,0,1,0,.5l-2.61,2.625a.948.948,0,0,1-1.4,0ZM5.1,8.66a1.046,1.046,0,0,1,0-1.4.948.948,0,0,1,1.4,0l.451.452a.359.359,0,0,1,0,.5l-.451.456a.953.953,0,0,1-1.4,0Zm8.462-.274-5.4-5.431a.349.349,0,0,0-.5,0L4.645,5.987a1.621,1.621,0,0,1-2.295,0,.576.576,0,0,1,.091-.543L7.751.1a.356.356,0,0,1,.5,0L15.9,7.843a.358.358,0,0,1,0,.5l-.045.047a1.621,1.621,0,0,1-2.295,0Z" transform="translate(0.002 -0.002)" fill="#fff"/>
</svg>
