<svg xmlns="http://www.w3.org/2000/svg" width="14" height="14" viewBox="0 0 14 14">
  <path id="search_2_" data-name="search (2)" d="M13.826,12.772l-3.2-3.194a6.349,6.349,0,0,0,1.257-4.221A5.633,5.633,0,0,0,9.713,1.365,5.967,5.967,0,0,0,0,6.5a5.633,5.633,0,0,0,2.171,3.992A6.015,6.015,0,0,0,9.6,10.6L12.8,13.8a.867.867,0,0,0,.457.228h0a.594.594,0,0,0,.457-.228A.732.732,0,0,0,13.826,12.772ZM5.943,1.479h0a4.449,4.449,0,1,1,0,8.9h0A4.386,4.386,0,0,1,1.487,5.928,4.5,4.5,0,0,1,2.858,2.734,4.041,4.041,0,0,1,5.943,1.479Z" transform="translate(0.015 -0.027)" fill="#323945"/>
</svg>
