<svg xmlns="http://www.w3.org/2000/svg" width="178.062" height="8.267" viewBox="0 0 178.062 8.267">
  <g id="underline-2" transform="translate(178.678 5.672) rotate(179.27)">
    <path id="Path_170510" data-name="Path 170510" d="M108.5,5.68h-.927l-14.6-.118c-.927,0-1.855,0-2.782-.02-2.053-.039-4.139-.1-6.226-.137l-8.379-.178-3.014-.059c-.4,0-.795,0-1.192-.019-4.206-.157-8.445-.335-12.65-.492l-5.862-.236c-1.093-.04-2.152-.118-3.245-.178-4.371-.236-8.776-.472-13.147-.727L34.846,3.4,31.6,3.162a2.249,2.249,0,0,0-.364-.02c-2.086-.079-4.206-.157-6.325-.256-1.623-.079-3.212-.137-4.8-.2-.2,0-.364-.02-.563-.02-.762-.019-14.737-1.16-15.465-1.18-.364,0-.761-.02-1.126-.04l-.762-.059c-.132-.02-.3-.04-.43-.059-.166-.039-.3-.079-.464-.118A1.091,1.091,0,0,1,.67.723a.5.5,0,0,1,0-.433,1.445,1.445,0,0,1,1.324-.61c.762.02,1.556.059,2.351.1.7.039,1.424.059,2.12.1l4.67.236c.828.04,1.689.1,2.55.138.927.059,1.888.1,2.815.157l6.557.472c3.973.275,7.915.571,11.889.846,1.027.02,2.02.02,3.047.04q5.713.059,11.425.137c2.053.02,4.107.02,6.16.04,1.556.019,3.08.019,4.636.039l24.308.236,5.067.059c.53-.02,1.027-.04,1.523-.04,2.517-.039,5-.1,7.518-.137l4.206-.118c2.318-.059,4.669-.137,7.021-.2,1.556-.039,3.146-.1,4.7-.157,2.351-.1,4.67-.177,7.021-.256,1.623-.059,3.246-.1,4.868-.157L130.42,1.1c.53,0,1.026-.02,1.556-.039,2.252-.04,4.5-.1,6.755-.157.729,0,1.424-.04,2.12-.059.927-.04,1.821-.059,2.716-.1,1.921-.079,3.875-.157,5.8-.256L152.707.31l1.987-.118a.426.426,0,0,1,.4-.2c.232.02.5.04.728.04a1.822,1.822,0,0,1,.662.079c.166.079.265.178.2.3a.408.408,0,0,1-.3.177c-.364.039-.762.1-1.159.118-.3.039-.629.059-.927.079L152.707.9c-1.821.118-3.676.236-5.5.335l-6.325.295c-.729.02-1.424.059-2.12.079-1.225.02-2.418.059-3.643.1-1.556.04-3.113.079-4.669.138-3.908.137-7.782.275-11.657.433l-4.669.177h17.452c3.908,0,7.849-.02,11.757-.04l4.5-.059c1.822-.02,3.643-.04,5.464-.079l11.856-.236,6.292-.118c.894-.02,1.788-.02,2.683-.04.464,0,.927-.019,1.391-.019.265,0,.5,0,.728-.02a5.5,5.5,0,0,1,.563-.019c.132,0,.232.02.364.02a1.708,1.708,0,0,1,.563.1.858.858,0,0,0,.2.079c.53.2.795.551.629.9a1.136,1.136,0,0,1-.927.55c-.6.079-1.192.178-1.821.236-.53.059-1.093.1-1.656.137l-2.12.118c-1.06.059-2.086.1-3.113.157-1.622.079-3.245.138-4.868.217-3.809.177-7.584.314-11.392.452-3.477.137-6.921.256-10.4.354-3.875.1-7.716.216-11.591.295-2.616.059-5.265.1-7.915.157-.5,0-.96.02-1.458.02h-2.02c-2.716.019-5.431.019-8.147.039C110.319,5.68,109.491,5.68,108.5,5.68Zm17.154-1.81c-2.517-.02-5-.02-7.518-.02-4.073,0-8.18-.02-12.253-.039q-5.431-.034-10.862-.1L84.289,3.6l-10.8-.118c2.152.04,4.338.1,6.491.138l8.047.177c1.027.02,2.02.059,3.047.059l14.141.118c1.093,0,2.219.02,3.345.02,2.318,0,4.636-.02,6.954-.02,1.954,0,3.875-.019,5.829-.019.5-.02,1.027-.02,1.556-.039C123.8,3.91,124.691,3.89,125.652,3.87Z" transform="translate(0 0)" fill="#22b339"/>
  </g>
</svg>
